<svg width="40" height="40" viewBox="0 0 40 40" fill="none" xmlns="http://www.w3.org/2000/svg">
<path d="M0 8C0 3.58172 3.58172 0 8 0H32C36.4183 0 40 3.58172 40 8V32C40 36.4183 36.4183 40 32 40H8C3.58172 40 0 36.4183 0 32V8Z" fill="white"/>
<path d="M22.6667 17.3333C23.7275 17.3333 24.7449 17.7548 25.4951 18.5049C26.2452 19.2551 26.6667 20.2725 26.6667 21.3333V26H24V21.3333C24 20.9797 23.8595 20.6406 23.6095 20.3905C23.3594 20.1405 23.0203 20 22.6667 20C22.313 20 21.9739 20.1405 21.7239 20.3905C21.4738 20.6406 21.3333 20.9797 21.3333 21.3333V26H18.6667V21.3333C18.6667 20.2725 19.0881 19.2551 19.8382 18.5049C20.5884 17.7548 21.6058 17.3333 22.6667 17.3333V17.3333Z" fill="#394446"/>
<path d="M16 18H13.3333V26H16V18Z" fill="#394446"/>
<path d="M14.6667 16C15.403 16 16 15.403 16 14.6667C16 13.9303 15.403 13.3333 14.6667 13.3333C13.9303 13.3333 13.3333 13.9303 13.3333 14.6667C13.3333 15.403 13.9303 16 14.6667 16Z" fill="#394446" stroke="#394446" stroke-linecap="round" stroke-linejoin="round"/>
<path d="M8 1H32V-1H8V1ZM39 8V32H41V8H39ZM32 39H8V41H32V39ZM1 32V8H-1V32H1ZM8 39C4.13401 39 1 35.866 1 32H-1C-1 36.9706 3.02944 41 8 41V39ZM39 32C39 35.866 35.866 39 32 39V41C36.9706 41 41 36.9706 41 32H39ZM32 1C35.866 1 39 4.13401 39 8H41C41 3.02944 36.9706 -1 32 -1V1ZM8 -1C3.02944 -1 -1 3.02944 -1 8H1C1 4.13401 4.13401 1 8 1V-1Z" fill="#D3D8D9"/>
</svg>
