<svg width="41" height="40" viewBox="0 0 41 40" fill="none" xmlns="http://www.w3.org/2000/svg">
<path d="M0.5 8C0.5 3.58172 4.08172 0 8.5 0H32.5C36.9183 0 40.5 3.58172 40.5 8V32C40.5 36.4183 36.9183 40 32.5 40H8.5C4.08172 40 0.5 36.4183 0.5 32V8Z" fill="white"/>
<path d="M25.1667 26L20.5 22.6667L15.8333 26V15.3333C15.8333 14.9797 15.9738 14.6406 16.2239 14.3905C16.4739 14.1405 16.813 14 17.1667 14H23.8333C24.187 14 24.5261 14.1405 24.7761 14.3905C25.0262 14.6406 25.1667 14.9797 25.1667 15.3333V26Z" stroke="#394446" stroke-linecap="round" stroke-linejoin="round"/>
<path d="M8.5 1H32.5V-1H8.5V1ZM39.5 8V32H41.5V8H39.5ZM32.5 39H8.5V41H32.5V39ZM1.5 32V8H-0.5V32H1.5ZM8.5 39C4.63401 39 1.5 35.866 1.5 32H-0.5C-0.5 36.9706 3.52944 41 8.5 41V39ZM39.5 32C39.5 35.866 36.366 39 32.5 39V41C37.4706 41 41.5 36.9706 41.5 32H39.5ZM32.5 1C36.366 1 39.5 4.13401 39.5 8H41.5C41.5 3.02944 37.4706 -1 32.5 -1V1ZM8.5 -1C3.52944 -1 -0.5 3.02944 -0.5 8H1.5C1.5 4.13401 4.63401 1 8.5 1V-1Z" fill="#D3D8D9"/>
</svg>
